<?xml version="1.0" encoding="utf-8"?>
<!-- Generator: Adobe Illustrator 27.0.1, SVG Export Plug-In . SVG Version: 6.00 Build 0)  -->
<svg version="1.1" id="a" xmlns="http://www.w3.org/2000/svg" xmlns:xlink="http://www.w3.org/1999/xlink" x="0px" y="0px"
	 viewBox="0 0 310.8 285.9" style="enable-background:new 0 0 310.8 285.9;" xml:space="preserve">
<style type="text/css">
	.st0{fill:#E21A53;}
	.st1{fill:#FBF2E3;}
	.st2{fill:#1E2022;}
</style>
<path class="st0" d="M278.8,285.9H32c-17.7,0-32-14.3-32-32V32C0,14.3,14.3,0,32,0h246.8c17.7,0,32,14.3,32,32v221.9
	C310.8,271.6,296.5,285.9,278.8,285.9z"/>
<path class="st1" d="M155.4,247.3c-31.3,0-62.5-9.4-86.4-28.2c-23.6-18.6-32-44.2-24.2-74c7.2-27.7,25.3-48.3,42-64.7
	c2.5-2.4,5-4.7,7.4-7c7.5-6.9,14.6-13.4,18.4-21.7c3.1-6.8,9.1-11.3,16-12c3.9-0.4,7.9,0.4,11.4,2.3c1.8,1,4.1,0.8,5.8-0.4
	c2.5-1.7,5.5-2.9,9.1-2.9c0,0,0.1,0,0.1,0c3.8,0,6.9,1.3,9.4,3c1.7,1.2,4,1.4,5.9,0.4c3.6-2,7.6-2.9,11.6-2.5
	c6.7,0.7,12.3,4.7,15.3,11.2c4.7,9.9,13.2,17.6,22.1,25.7c5.1,4.6,10.3,9.4,15.2,14.8c17,19,26.7,35.8,31.4,54.5
	c7.5,29.4-0.6,54.5-23.4,72.7C218.7,237.7,187.1,247.3,155.4,247.3L155.4,247.3z"/>
<g>
	<path class="st2" d="M155.4,257.3c-34.3,0-68.5-10.3-94.6-30.9c-25.8-20.3-35-48.4-26.5-81.1c7.9-30.4,27.7-52.9,46-70.9
		c2.7-2.7,5.5-5.2,8.2-7.7c8.2-7.6,16-14.7,20.2-23.8c3.4-7.5,10-12.4,17.5-13.2c4.3-0.4,8.6,0.4,12.5,2.5c2,1.1,4.5,0.8,6.4-0.4
		c2.7-1.8,6-3.2,10-3.2c0,0,0.1,0,0.2,0c4.1,0,7.5,1.4,10.3,3.3c1.9,1.3,4.4,1.5,6.5,0.4c4-2.2,8.4-3.1,12.7-2.7
		c7.3,0.7,13.4,5.2,16.8,12.2c5.2,10.9,14.4,19.3,24.2,28.2c5.6,5.1,11.3,10.3,16.6,16.2c18.6,20.8,29.2,39.3,34.4,59.7
		c8.2,32.2-0.7,59.7-25.6,79.7C224.7,246.7,190.1,257.3,155.4,257.3L155.4,257.3z M131.2,43.2c-1.6-0.8-3.4-0.2-4.4,1.3
		c-6.6,10.4-14.8,18.6-22.3,26c-2.8,2.8-5.4,5.4-8,8.1c-17.5,18.6-34.5,39.5-41,66.8c-6,25.2-0.4,44.1,17.7,59.5
		c44.9,38.3,120.7,38,165.4-0.6c17.1-14.7,22.6-33.8,16.8-58.2c-4.3-18.3-13.5-35.3-30-55.3c-4.6-5.6-9.9-10.8-15.5-16.4
		c-8.7-8.6-18.2-18-25.9-29.9c-1-1.6-2.9-2.1-4.4-1.3c-3.2,1.8-6.8,2.7-10.5,2.7c-0.1,0-0.1,0-0.2,0c-4.3,0-8.4-1.4-11.9-3.7
		c-1.1-0.7-2.5-0.7-3.5,0c-3.4,2.2-7.4,3.5-11.5,3.5C138.1,45.9,134.5,45,131.2,43.2L131.2,43.2z M136.6,39.1L136.6,39.1L136.6,39.1
		z"/>
	<g>
		<path class="st2" d="M139.4,62.6c-0.2-0.6-0.7-0.9-1.3-0.8c-0.3,0-0.9,0.2-1,1c-0.1,0.7-0.2,1.4-0.3,2.1c-0.4,1.9-1.2,3.7-2.4,5.3
			c-1.2,1.5-2.2,2.6-3.3,3.5c-1,0.9-2.2,1.5-3.6,1.9c-1.1,0.3-2.3,0.6-3.5,1c-0.5,0.2-1,0.5-1.5,0.8c-0.8,0.6-1.1,1.6-1.1,2.5
			c0.1,0.9,0.6,1.7,1.4,2.2c0.7,0.4,1.4,0.5,1.9,0.6c0.3,0,0.6,0.1,1,0.1c1.4,0,2.8-0.4,4.2-1.1h0c2.5-1.3,4.5-3.2,6.3-5.8
			c2.5-3.7,3.6-7.9,3.2-12.5C139.6,63.1,139.5,62.9,139.4,62.6L139.4,62.6z"/>
		<path class="st2" d="M188.3,77.5c-0.4-0.4-1-0.7-1.5-0.8c-1.2-0.4-2.5-0.7-3.5-1c-1.4-0.4-2.5-1-3.6-1.9c-1.1-0.9-2.1-2-3.3-3.5
			c-1.3-1.6-2.1-3.4-2.4-5.3c-0.1-0.7-0.2-1.4-0.3-2.1c-0.1-0.8-0.7-1-1-1c-0.6-0.1-1.1,0.2-1.3,0.8c-0.1,0.2-0.1,0.5-0.2,0.8
			c-0.4,4.6,0.7,8.8,3.2,12.5c1.8,2.6,3.8,4.5,6.3,5.8h0c1.4,0.7,2.8,1.1,4.2,1.1c0.3,0,0.6,0,1-0.1c0.5-0.1,1.2-0.2,1.9-0.6
			c0.8-0.5,1.3-1.3,1.4-2.2C189.4,79.1,189,78.1,188.3,77.5L188.3,77.5z"/>
		<path class="st2" d="M157.2,68l-0.2-2.5c-0.1-0.9-0.3-1.8-0.4-2.3c-0.3-1-0.6-2-1.4-1.9c-0.7,0.1-1,0.8-1.3,2.9
			c-0.8,7.4-1.2,13.5-1.3,19.7l0,0.8c0,0.8,0,1.7,0.1,2.6c0.1,2.2,0.4,4.1,0.8,5.6c0.3,1,0.9,2.4,1.9,2.4c0,0,0,0,0,0
			c0.9,0,1.5-1.1,2-3.3c0.2-0.8,0.3-1.6,0.4-2.3c0.5-4.6,0.6-8.4,0.4-11.8C157.8,74.4,157.5,71.1,157.2,68L157.2,68z"/>
	</g>
	<g>
		<path class="st2" d="M157,178.9c-5.5,0-10.6-2.4-14.1-6.6c-1.3-1.5-1.1-3.8,0.5-5.1c1.5-1.3,3.8-1.1,5.1,0.5c2.1,2.5,5.2,4,8.5,4
			s6.3-1.4,8.4-3.9c1.3-1.5,3.6-1.7,5.1-0.4c1.5,1.3,1.7,3.6,0.4,5.1C167.5,176.6,162.4,178.9,157,178.9L157,178.9z"/>
		<path class="st2" d="M118.8,136.7c7,0,13.5,3.1,18,8.5c1.6,2,1.4,4.9-0.6,6.5c-2,1.6-4.9,1.4-6.5-0.6c-2.7-3.2-6.6-5.1-10.8-5.1
			c-4.2,0-8.1,1.8-10.7,5c-1.6,2-4.6,2.2-6.5,0.6s-2.2-4.6-0.6-6.5C105.4,139.7,111.9,136.7,118.8,136.7L118.8,136.7z"/>
		<path class="st2" d="M191.9,136.7c7,0,13.5,3.1,18,8.5c1.6,2,1.4,4.9-0.6,6.5c-2,1.6-4.9,1.4-6.5-0.6c-2.7-3.2-6.6-5.1-10.8-5.1
			c-4.2,0-8.1,1.8-10.7,5c-1.6,2-4.6,2.2-6.5,0.6s-2.2-4.6-0.6-6.5C178.6,139.7,185,136.7,191.9,136.7L191.9,136.7z"/>
	</g>
</g>
</svg>
